<?xml version="1.0" encoding="utf-8"?>

<!DOCTYPE svg PUBLIC "-//W3C//DTD SVG 1.0//EN" "http://www.w3.org/TR/2001/REC-SVG-20010904/DTD/svg10.dtd">
<!-- Uploaded to: SVG Repo, www.svgrepo.com, Generator: SVG Repo Mixer Tools -->
<svg version="1.0" id="Layer_1" xmlns="http://www.w3.org/2000/svg" xmlns:xlink="http://www.w3.org/1999/xlink" 
	 viewBox="0 0 64 64" enable-background="new 0 0 64 64" xml:space="preserve">
<g>
	<path fill="#231F20" d="M20.161,2.273C16.233,3.835,12.553,6.2,9.375,9.378C9.19,9.562,9.018,9.755,8.838,9.942
		c1.386,3.831,3.126,7.562,5.242,11.133C18.139,15.485,20.168,8.879,20.161,2.273z"/>
	<path fill="#231F20" d="M63.824,28.682c-9.751-1.521-20.067,1.469-27.58,8.981c-1.202,1.202-2.287,2.479-3.258,3.812
		c7.363,5.18,15.545,8.678,24.021,10.495C62.398,45.233,64.671,36.827,63.824,28.682z"/>
	<path fill="#231F20" d="M27.05,63.616c9.75,1.519,20.067-1.471,27.58-8.983c0.308-0.308,0.602-0.624,0.894-0.94
		c-8.344-1.927-16.387-5.451-23.659-10.562C27.924,49.32,26.316,56.563,27.05,63.616z"/>
	<path fill="#231F20" d="M12.771,22.754c-2.172-3.571-3.98-7.297-5.435-11.13c-4.895,5.909-7.34,13.163-7.332,20.416
		c3.926-1.562,7.607-3.928,10.785-7.105C11.491,24.232,12.147,23.503,12.771,22.754z"/>
	<path fill="#231F20" d="M13.881,24.53c-0.535,0.62-1.09,1.231-1.678,1.819c-3.554,3.553-7.701,6.146-12.121,7.798
		c0.497,7.462,3.59,14.782,9.293,20.485c0.027,0.028,0.057,0.054,0.085,0.082c2.091-7.833,5.595-15.364,10.528-22.188
		C17.73,29.981,15.691,27.309,13.881,24.53z"/>
	<path fill="#231F20" d="M30.236,41.961c-2.588-1.935-5.074-4.067-7.427-6.42c-0.493-0.493-0.958-1.003-1.433-1.507
		c-4.874,6.828-8.298,14.369-10.258,22.207c4.102,3.541,8.884,5.869,13.886,6.984C24.372,55.889,26.117,48.385,30.236,41.961z"/>
	<path fill="#231F20" d="M22.583,32.401c0.54,0.579,1.076,1.161,1.641,1.726c2.262,2.262,4.653,4.313,7.14,6.18
		c1.033-1.42,2.187-2.778,3.467-4.058c7.829-7.829,18.525-11.037,28.708-9.635c-1.062-6.245-3.979-12.235-8.761-17.08
		c-9.619,3.111-18.671,8.468-26.311,16.107C26.321,27.787,24.371,30.052,22.583,32.401z"/>
	<path fill="#231F20" d="M15.215,22.892c1.773,2.78,3.774,5.456,6.007,8.002c1.78-2.312,3.711-4.546,5.831-6.666
		c7.594-7.595,16.541-13.007,26.063-16.257c-8.688-7.646-20.523-9.78-30.973-6.405C22.307,9.073,19.998,16.62,15.215,22.892z"/>
</g>
</svg>