<?xml version="1.0" encoding="utf-8"?>

<!DOCTYPE svg PUBLIC "-//W3C//DTD SVG 1.0//EN" "http://www.w3.org/TR/2001/REC-SVG-20010904/DTD/svg10.dtd">
<!-- Uploaded to: SVG Repo, www.svgrepo.com, Generator: SVG Repo Mixer Tools -->
<svg version="1.0" id="Layer_1" xmlns="http://www.w3.org/2000/svg" xmlns:xlink="http://www.w3.org/1999/xlink" 
	 viewBox="0 0 64 64" enable-background="new 0 0 64 64" xml:space="preserve">
<g>
	<circle fill="#231F20" cx="13" cy="46" r="2"/>
	<rect x="22" y="43" fill="#231F20" width="20" height="6"/>
	<circle fill="#231F20" cx="51" cy="46" r="2"/>
	<path fill="#231F20" d="M64,18.999c0-0.553-0.447-1-1-1h-3V10c0-5.523-4.478-10-10-10H14C8.477,0,4,4.478,4,10v7.999H1
		c-0.553,0-1,0.447-1,1v9L0.003,28H0c0,2.209,1.791,4,4,4v20c0,2.211,1.789,4,4,4v7c0,0.553,0.447,1,1,1h8c0.553,0,1-0.447,1-1v-7
		h28v7c0,0.553,0.447,1,1,1h8c0.553,0,1-0.447,1-1v-7c2.211,0,4-1.789,4-4V32c2.209,0,4-1.791,4-4h-0.003L64,27.999V18.999z M4,30
		c-1.104,0-2-0.896-2-2v-8.001h2V30z M28,5h8c0.553,0,1,0.447,1,1s-0.447,1-1,1h-8c-0.553,0-1-0.447-1-1S27.447,5,28,5z M16,62h-6
		v-6h6V62z M13,50c-2.209,0-4-1.791-4-4s1.791-4,4-4s4,1.791,4,4S15.209,50,13,50z M16,36h-6V12h21v24h-3c0-3.314-2.686-6-6-6
		S16,32.686,16,36z M22,32c2.209,0,4,1.791,4,4h-8C18,33.791,19.791,32,22,32z M44,50c0,0.553-0.447,1-1,1H21c-0.553,0-1-0.447-1-1
		v-8c0-0.553,0.447-1,1-1h22c0.553,0,1,0.447,1,1V50z M33,36V12h21v24H33z M54,62h-6v-6h6V62z M51,50c-2.209,0-4-1.791-4-4
		s1.791-4,4-4s4,1.791,4,4S53.209,50,51,50z M62,28c0,1.104-0.896,2-2,2V19.999h2V28z"/>
	<path fill="#231F20" d="M49.707,14.294c-0.391-0.391-1.023-0.391-1.414,0s-0.391,1.023,0,1.414l2,2
		c0.195,0.195,0.451,0.293,0.707,0.293s0.512-0.098,0.707-0.293c0.391-0.391,0.391-1.023,0-1.414L49.707,14.294z"/>
	<path fill="#231F20" d="M44.707,14.293c-0.391-0.391-1.023-0.391-1.414,0s-0.391,1.023,0,1.414l7,7C50.488,22.902,50.744,23,51,23
		s0.512-0.098,0.707-0.293c0.391-0.391,0.391-1.023,0-1.414L44.707,14.293z"/>
</g>
</svg>