<?xml version="1.0" encoding="utf-8"?>

<!DOCTYPE svg PUBLIC "-//W3C//DTD SVG 1.0//EN" "http://www.w3.org/TR/2001/REC-SVG-20010904/DTD/svg10.dtd">
<!-- Uploaded to: SVG Repo, www.svgrepo.com, Generator: SVG Repo Mixer Tools -->
<svg version="1.0" id="Layer_1" xmlns="http://www.w3.org/2000/svg" xmlns:xlink="http://www.w3.org/1999/xlink" 
	 viewBox="0 0 64 64" enable-background="new 0 0 64 64" xml:space="preserve">
<g>
	<path fill="#231F20" d="M36.169,34.754c-0.372,0.562-0.854,1.043-1.415,1.415l7.853,7.853c0.391,0.391,1.023,0.391,1.414-0.001
		c0.391-0.391,0.391-1.023,0-1.414L36.169,34.754z"/>
	<path fill="#231F20" d="M33,27.101V14c0-0.553-0.447-1-1-1s-1,0.447-1,1v13.101C31.323,27.035,31.657,27,32,27
		S32.677,27.035,33,27.101z"/>
	<path fill="#231F20" d="M32,29c-1.657,0-3,1.343-3,3s1.343,3,3,3s3-1.343,3-3S33.657,29,32,29z M32,33c-0.553,0-1-0.447-1-1
		s0.447-1,1-1s1,0.447,1,1S32.553,33,32,33z"/>
	<path fill="#231F20" d="M54,32c0-0.553,0.447-1,1-1h2.975c-0.243-6.425-2.815-12.252-6.899-16.661l-2.105,2.104
		c-0.391,0.391-1.023,0.391-1.414,0s-0.391-1.023,0-1.414l2.104-2.104C45.251,8.84,39.424,6.269,32.999,6.025V9c0,0.553-0.447,1-1,1
		s-1-0.447-1-1V6.025c-6.425,0.243-12.252,2.815-16.661,6.9l2.104,2.104c0.391,0.391,0.391,1.022,0,1.414
		c-0.391,0.391-1.023,0.391-1.414,0l-2.104-2.104C8.84,18.75,6.269,24.577,6.025,31.002h2.974c0.553,0,0.999,0.446,1,1
		c0,0.552-0.447,0.999-1,1H6.025c0.244,6.425,2.816,12.251,6.9,16.66l2.104-2.104c0.391-0.391,1.021-0.391,1.414,0
		c0.39,0.39,0.39,1.022,0,1.414l-2.104,2.104c4.409,4.084,10.235,6.655,16.66,6.898l0.001-2.974c0-0.553,0.446-0.999,1-1
		c0.551,0,0.998,0.447,1,1l-0.001,2.974c6.425-0.243,12.251-2.815,16.66-6.9l-2.104-2.104c-0.391-0.392-0.391-1.023,0-1.415
		c0.39-0.39,1.022-0.39,1.415,0l2.103,2.104c4.085-4.409,6.656-10.235,6.899-16.66H55C54.447,33,54,32.553,54,32z M45.435,45.435
		c-1.172,1.172-3.07,1.173-4.242,0.001l-8.505-8.505C32.461,36.962,32.235,37,32,37c-2.762,0-5-2.238-5-5
		c0-1.631,0.792-3.064,2-3.978V14c0-1.657,1.343-3,3-3s3,1.343,3,3v14.022c1.208,0.913,2,2.347,2,3.978
		c0,0.236-0.038,0.461-0.069,0.688l8.504,8.504C46.606,42.364,46.606,44.263,45.435,45.435z"/>
	<path fill="#231F20" d="M32,0C14.327,0,0,14.327,0,32s14.327,32,32,32s32-14.327,32-32S49.673,0,32,0z M32,60
		C16.536,60,4,47.464,4,32S16.536,4,32,4s28,12.536,28,28S47.464,60,32,60z"/>
</g>
</svg>