<?xml version="1.0" encoding="utf-8"?>

<!DOCTYPE svg PUBLIC "-//W3C//DTD SVG 1.0//EN" "http://www.w3.org/TR/2001/REC-SVG-20010904/DTD/svg10.dtd">
<!-- Uploaded to: SVG Repo, www.svgrepo.com, Generator: SVG Repo Mixer Tools -->
<svg version="1.0" id="Layer_1" xmlns="http://www.w3.org/2000/svg" xmlns:xlink="http://www.w3.org/1999/xlink" 
	 viewBox="0 0 64 64" enable-background="new 0 0 64 64" xml:space="preserve">
<g>
	<path fill="#231F20" d="M8.136,9.966l0.399-0.965c0.708-1.23,2.018-2,3.465-2h9.235c-1.6-4.096-5.573-7-10.235-7
		c-6.075,0-11,4.924-11,11c0,6.075,4.925,11,11,11c1.838,0,3.563-0.461,5.085-1.259l-6.913-6.913
		C8.148,12.806,7.767,11.335,8.136,9.966z"/>
	<path fill="#231F20" d="M10.152,10.235c-0.31,0.748-0.139,1.607,0.434,2.18l2.586,2.586h33.413l6-6H12
		C11.191,9.001,10.462,9.488,10.152,10.235z"/>
	<path fill="#231F20" d="M63.84,10.217C63.525,9.479,62.802,9.001,62,9.001h-6.585l-6,6h11.412l2.615-2.615
		C63.998,11.808,64.154,10.954,63.84,10.217z"/>
	<path fill="#231F20" d="M44.104,20.312c0.447,1.211,0.006,2.822-1.246,4.074s-2.863,1.693-4.076,1.246l-2.289,2.289
		c-0.391,0.391-1.023,0.391-1.414,0s-0.391-1.023,0-1.414l2.289-2.289c-0.447-1.213-0.005-2.823,1.247-4.075
		s2.862-1.694,4.074-1.246l1.896-1.896H15.172l20.414,20.414c0.375,0.375,0.884,0.586,1.414,0.586c0.007,0,0.014,0,0.021,0
		c0.537-0.006,1.05-0.228,1.422-0.615l20.385-20.385H47.415L44.104,20.312z"/>
	<path fill="#231F20" d="M40.028,21.558c-0.863,0.863-0.995,1.833-0.706,2.122c0.288,0.288,1.258,0.157,2.121-0.707
		c0.863-0.863,0.995-1.833,0.707-2.121C41.861,20.562,40.892,20.694,40.028,21.558z"/>
	<path fill="#231F20" d="M48,58.001h-8V38.656L39.856,38.8c-0.71,0.741-1.746,1.189-2.814,1.201h-0.011H37
		c-1.068,0-2.072-0.416-2.828-1.172L34,38.657v19.344h-8c-1.104,0-2,0.896-2,2v4h26v-4C50,58.896,49.104,58.001,48,58.001z"/>
</g>
</svg>