<?xml version="1.0" encoding="utf-8"?>

<!DOCTYPE svg PUBLIC "-//W3C//DTD SVG 1.0//EN" "http://www.w3.org/TR/2001/REC-SVG-20010904/DTD/svg10.dtd">
<!-- Uploaded to: SVG Repo, www.svgrepo.com, Generator: SVG Repo Mixer Tools -->
<svg version="1.0" id="Layer_1" xmlns="http://www.w3.org/2000/svg" xmlns:xlink="http://www.w3.org/1999/xlink" 
	 viewBox="0 0 64 64" enable-background="new 0 0 64 64" xml:space="preserve">
<g>
	<path fill="#231F20" d="M32,48c6.627,0,12-5.373,12-12s-5.373-12-12-12s-12,5.373-12,12S25.373,48,32,48z M32,28
		c4.418,0,8,3.582,8,8c0,0.553-0.447,1-1,1s-1-0.447-1-1c0-3.313-2.687-6-6-6c-0.553,0-1-0.447-1-1S31.447,28,32,28z"/>
	<path fill="#231F20" d="M32,52c8.837,0,16-7.162,16-16c0-8.837-7.163-16-16-16s-16,7.163-16,16C16,44.838,23.163,52,32,52z M32,22
		c7.732,0,14,6.268,14,14s-6.268,14-14,14s-14-6.268-14-14S24.268,22,32,22z"/>
	<circle fill="#231F20" cx="55" cy="21" r="1"/>
	<path fill="#231F20" d="M60,12c0,0-7,0-8,0s-1.582,0.004-2.793-1.207s-5.538-5.538-5.538-5.538C43.481,5.067,42.33,4,41,4
		S24.453,4,23,4s-2.498,1.084-2.686,1.271c0,0-4.326,4.326-5.521,5.521S13.018,12,12,12V9c0-0.553-0.447-1-1-1H5
		C4.447,8,4,8.447,4,9v3c-2.211,0-4,1.789-4,4v12h15.893C18.84,22.078,24.937,18,32,18s13.16,4.078,16.107,10H64V16
		C64,13.789,62.211,12,60,12z M10,12c-1.24,0-2.782,0-4,0v-2h4V12z M55,24c-1.657,0-3-1.344-3-3s1.343-3,3-3s3,1.344,3,3
		S56.657,24,55,24z"/>
	<path fill="#231F20" d="M50,36c0,9.941-8.059,18-18,18s-18-8.059-18-18c0-2.107,0.381-4.121,1.046-6H0v26c0,2.211,1.789,4,4,4h56
		c2.211,0,4-1.789,4-4V30H48.954C49.619,31.879,50,33.893,50,36z"/>
</g>
</svg>