<?xml version="1.0" encoding="utf-8"?>

<!DOCTYPE svg PUBLIC "-//W3C//DTD SVG 1.0//EN" "http://www.w3.org/TR/2001/REC-SVG-20010904/DTD/svg10.dtd">
<!-- Uploaded to: SVG Repo, www.svgrepo.com, Generator: SVG Repo Mixer Tools -->
<svg version="1.0" id="Layer_1" xmlns="http://www.w3.org/2000/svg" xmlns:xlink="http://www.w3.org/1999/xlink" 
	 viewBox="0 0 64 64" enable-background="new 0 0 64 64" xml:space="preserve">
<g>
	<path fill="#231F20" d="M6,0H4C1.789,0,0,1.788,0,4v14c0,2.211,1.789,4,4,4h2V0z"/>
	<path fill="#231F20" d="M60,0h-2v22h2c2.211,0,4-1.789,4-4V4C64,1.788,62.211,0,60,0z"/>
	<path fill="#231F20" d="M12,58v2c0,2.211,1.789,4,4,4h32c2.211,0,4-1.789,4-4v-2H12z"/>
	<g>
		<path fill="#231F20" d="M36,22c-0.553,0-1.053,0.223-1.414,0.586l-1.879,1.87c-0.391,0.391-1.023,0.391-1.414,0l-1.879-1.87
			C29.053,22.223,28.553,22,28,22c-1.104,0-2,0.895-2,2c0,0.552,0.481,1.075,0.844,1.437L32,30.593l5.156-5.156
			C37.519,25.075,38,24.552,38,24C38,22.895,37.104,22,36,22z"/>
		<path fill="#231F20" d="M44.501,0c-2,0-2.395,1.384-2.725,2.024C39.952,5.57,36.264,8,32,8c-4.271,0-7.968-2.438-9.787-5.996
			C21.888,1.368,21.46,0,19.501,0H8v22h4v34h40V22h4V0H44.501z M38.547,26.875l-5.84,5.84c-0.391,0.391-1.023,0.391-1.414,0
			l-5.855-5.856C24.713,26.135,24,25.104,24,24c0-2.21,1.791-4,4-4c1.104,0,2.104,0.447,2.828,1.171L32,22.336l1.172-1.165
			C33.896,20.447,34.896,20,36,20c2.209,0,4,1.79,4,4C40,25.104,39.271,26.15,38.547,26.875z"/>
	</g>
</g>
</svg>